<svg t="1623753306710" class="icon" viewBox="0 0 1024 1024" version="1.1" xmlns="http://www.w3.org/2000/svg" p-id="22737" width="200" height="200"><path d="M737.960335 511.208984c0 0 132.587738-235.293911-250.882957-111.794156 48.071855-37.664831 40.305985-114.413819 2.581802-141.67265C349.266685 156.336628 6.161327 480.008378 6.161327 672.39506c0 116.976178 126.062114 269.076318 413.33077 269.076318 361.39491 0 474.450802-197.589171 474.450802-293.753347C893.942899 515.092431 737.960335 511.208984 737.960335 511.208984L737.960335 511.208984zM431.377798 890.857631c-168.341033 15.688307-313.423339-64.156182-324.008418-178.372503-10.703783-114.179482 117.133767-219.467457 285.514709-235.137345 168.340009-15.668865 313.421292 64.156182 324.045257 178.353061C727.554334 769.898745 599.756693 875.188766 431.377798 890.857631L431.377798 890.857631z" p-id="22738" fill="#ffffff"></path><path d="M371.931894 559.753607c-91.157139 15.432481-154.325831 91.276866-141.082202 169.307034 13.205766 78.070076 97.779977 128.860856 188.937117 113.448842 91.117231-15.432481 154.286945-91.216491 141.081179-169.307034C547.623335 595.134419 463.089034 544.361035 371.931894 559.753607L371.931894 559.753607zM356.087021 782.453688c-29.446659 8.081049-59.366086-7.213285-66.835198-34.17638-7.391341-27.042913 10.464329-55.482639 39.873126-63.602573 29.445636-8.120958 59.366086 7.1744 66.795289 34.17638C403.350464 745.853096 385.531634 774.294868 356.087021 782.453688L356.087021 782.453688zM432.559717 695.771467c-15.137769 0-27.41642-12.239765-27.41642-27.377534 0-15.117302 12.278651-27.395954 27.41642-27.395954 15.135722 0 27.375487 12.299117 27.375487 27.395954C459.936227 683.531702 447.696462 695.771467 432.559717 695.771467L432.559717 695.771467z" p-id="22739" fill="#ffffff"></path><path d="M964.108958 219.4869c-60.507072-77.359902-157.479661-110.905926-272.977161-94.448092-19.473517 2.759857-33.035394 20.793582-30.254048 40.286542 2.739391 19.432585 20.714787 32.93511 40.267099 30.214139 114.37391-16.319687 175.651532 27.869744 206.91149 67.840084 41.033555 52.526307 52.624545 127.383202 28.794813 186.217169-7.390317 18.231223 1.379417 39.005362 19.632129 46.37726 4.3951 1.774413 8.888438 2.62171 13.363356 2.62171 14.053064 0 27.374464-8.396227 32.993438-22.233374C1035.95017 394.666688 1020.398985 291.446815 964.108958 219.4869L964.108958 219.4869z" p-id="22740" fill="#ffffff"></path><path d="M725.365482 254.274194c-19.393699 2.7793-32.95353 20.814048-30.176276 40.267099 2.7793 19.453051 20.714787 32.955576 40.267099 30.214139 32.718169-4.690836 58.20361 3.174296 73.498968 22.725584 13.775748 17.661242 17.856693 43.577494 10.012028 63.070454-7.391341 18.231223 1.419326 38.98592 19.630083 46.37726 4.433986 1.774413 8.888438 2.602268 13.363356 2.602268 14.054087 0 27.41642-8.397251 32.993438-22.23235 17.561981-43.282782 9.736758-95.749738-19.906375-133.670395C846.855464 280.33064 804.499797 242.961544 725.365482 254.274194L725.365482 254.274194z" p-id="22741" fill="#ffffff"></path></svg>