<svg t="1623753035919" class="icon" viewBox="0 0 1062 1024" version="1.1" xmlns="http://www.w3.org/2000/svg" p-id="18685" width="200" height="200"><path d="M1062.26821 383.052c-11.378-26.548-367.881-53.096-367.881-53.096S561.64621 0 531.30521 0c-30.34 0-163.081 329.956-163.081 329.956S11.72021 356.504 0.34121 383.052C-11.03479 409.6 265.82421 640.948 265.82421 640.948s-83.437 348.919-64.474 364.089c22.755 15.17 329.955-170.667 329.955-170.667s307.2 193.423 326.163 170.667c15.17-15.17-26.548-212.385-49.303-310.993 0-3.792-121.363 11.378-250.312 15.17-117.57 0-246.518-7.584-246.518-7.584L614.74121 474.074s-94.814-18.963-166.874-22.755c-102.4-7.586-193.422-7.586-182.044-11.378 18.963-3.793 144.118-15.17 265.481-11.378 109.985 3.793 223.763 22.756 223.763 22.756L451.66121 667.496s68.267 11.378 121.363 11.378c106.192 3.793 235.14 0 235.14 0-3.792-15.17-7.585-37.926-7.585-37.926s269.274-227.555 261.69-257.896z" p-id="18686" fill="#ffffff"></path></svg>