<svg t="1623752629139" class="icon" viewBox="0 0 1024 1024" version="1.1" xmlns="http://www.w3.org/2000/svg" p-id="16739" width="200" height="200"><path d="M693.191 371.94c11.776 0 23.381 0.91 34.93 2.275-31.346-149.504-187.506-260.437-365.739-260.437C163.214 113.778 0 252.7 0 429.113 0 530.944 54.272 614.57 145.067 679.424l-36.295 111.502 126.691-64.967c45.34 9.16 81.75 18.603 126.976 18.603 11.378 0 22.642-0.57 33.849-1.48a282.055 282.055 0 0 1-11.207-77.653c0-162.02 135.964-293.49 308.11-293.49zM498.347 271.417c27.306 0 45.34 18.375 45.34 46.307 0 27.762-18.034 46.365-45.34 46.365-27.193 0-54.443-18.603-54.443-46.365 0-27.875 27.307-46.307 54.443-46.307z m-253.725 92.729c-27.136 0-54.613-18.66-54.613-46.422 0-27.875 27.477-46.307 54.613-46.307 27.193 0 45.227 18.375 45.227 46.307 0 27.762-18.034 46.365-45.227 46.365zM1024 660.878c0-148.195-145.01-269.084-307.826-269.084-172.487 0-308.28 120.889-308.28 269.084 0 148.48 135.793 269.085 308.28 269.085 36.068 0 72.477-9.33 108.715-18.603l99.442 55.694-27.307-92.672C969.842 818.632 1024 744.562 1024 660.935z m-407.78-46.364c-18.033 0-36.238-18.375-36.238-37.092 0-18.489 18.205-37.091 36.238-37.091 27.42 0 45.34 18.602 45.34 37.091 0 18.717-17.92 37.092-45.34 37.092z m199.34 0c-17.92 0-36.012-18.375-36.012-37.092 0-18.489 18.091-37.091 36.011-37.091 27.136 0 45.34 18.602 45.34 37.091 0 18.717-18.204 37.092-45.34 37.092z" p-id="16740" fill="#ffffff"></path></svg>