<svg t="1623413292380" class="icon" viewBox="0 0 19200 1024" version="1.1" xmlns="http://www.w3.org/2000/svg" p-id="22054" width="200" height="200"><path d="M18715.8016 256c42.2912 0 76.6976 34.304 76.6976 76.6464v358.7072c0 42.24-34.304 76.6464-76.6976 76.6464h-975.104c-42.2912 0-76.6976-34.304-76.6976-76.6464V332.6464c0-42.24 34.304-76.6464 76.6976-76.6464z m0.3072 26.9312h-975.7696c-28.3136 0-51.2512 23.3472-51.2512 50.7904v356.5568c0 28.0576 22.528 50.7904 51.2512 50.7904h975.7696c28.3648 0 51.3024-23.3472 51.3024-50.7904V333.7216a50.7392 50.7392 0 0 0-51.3024-50.7904z m0.8192 26.9824c13.824 0 25.3952 11.264 25.3952 25.2416v353.6896a25.6 25.6 0 0 1-25.3952 25.2416h-977.3568a25.4464 25.4464 0 0 1-25.3952-25.2416V335.1552a25.6 25.6 0 0 1 25.3952-25.2416z m138.24 107.776a37.376 37.376 0 0 1 37.632 37.2736v114.0736c0 20.5312-16.8448 37.2736-37.632 37.2736h-37.5808V417.6896z" fill="#ffffff" p-id="22055"></path><path d="M16054.6816 716.8V278.1184h-54.0672a273.92 273.92 0 0 1-55.296 43.008 260.608 260.608 0 0 1-62.6688 25.8048v71.2704c40.5504-11.6736 73.728-29.4912 100.1472-53.4528V716.8h71.8848z m239.616 8.6016c50.9952 0 90.9312-21.504 119.808-63.8976 27.0336-40.5504 40.5504-95.232 40.5504-164.0448s-13.5168-123.4944-40.5504-164.0448c-28.8768-43.008-68.8128-63.8976-119.808-63.8976-51.6096 0-91.5456 20.8896-119.808 63.8976-27.0336 40.5504-40.5504 95.232-40.5504 164.0448s13.5168 123.4944 40.5504 164.0448c28.2624 42.3936 68.1984 63.8976 119.808 63.8976z m0-60.8256c-35.0208 0-59.5968-19.6608-73.728-58.368-9.8304-27.0336-14.7456-63.2832-14.7456-108.7488 0-46.08 4.9152-82.3296 14.7456-108.7488 14.1312-39.3216 38.7072-58.368 73.728-58.368 34.4064 0 58.9824 19.0464 73.728 58.368 9.8304 26.4192 14.7456 62.6688 14.7456 108.7488 0 45.4656-4.9152 81.7152-14.7456 108.7488-14.7456 38.7072-39.3216 58.368-73.728 58.368z m368.64 60.8256c50.9952 0 90.9312-21.504 119.808-63.8976 27.0336-40.5504 40.5504-95.232 40.5504-164.0448s-13.5168-123.4944-40.5504-164.0448c-28.8768-43.008-68.8128-63.8976-119.808-63.8976-51.6096 0-91.5456 20.8896-119.808 63.8976-27.0336 40.5504-40.5504 95.232-40.5504 164.0448s13.5168 123.4944 40.5504 164.0448c28.2624 42.3936 68.1984 63.8976 119.808 63.8976z m0-60.8256c-35.0208 0-59.5968-19.6608-73.728-58.368-9.8304-27.0336-14.7456-63.2832-14.7456-108.7488 0-46.08 4.9152-82.3296 14.7456-108.7488 14.1312-39.3216 38.7072-58.368 73.728-58.368 34.4064 0 58.9824 19.0464 73.728 58.368 9.8304 26.4192 14.7456 62.6688 14.7456 108.7488 0 45.4656-4.9152 81.7152-14.7456 108.7488-14.7456 38.7072-39.3216 58.368-73.728 58.368z m393.8304 60.8256l246.3744-455.8848h-53.4528l-246.3744 455.8848h53.4528z m-61.44-207.0528c34.4064 0 60.8256-12.288 79.2576-35.6352 15.9744-21.504 24.576-49.7664 24.576-84.1728 0-35.0208-8.6016-63.2832-24.576-84.1728-18.432-24.576-44.8512-36.2496-79.2576-36.2496s-61.44 11.6736-79.872 36.2496c-17.2032 20.8896-25.1904 49.152-25.1904 84.1728 0 34.4064 7.9872 62.0544 25.1904 84.1728 18.432 23.3472 45.4656 35.6352 79.872 35.6352z m0-44.8512c-15.36 0-26.4192-7.9872-32.5632-23.9616-4.9152-12.288-7.3728-29.4912-7.3728-50.9952 0-22.1184 2.4576-39.3216 7.3728-51.6096 6.144-15.9744 17.2032-23.9616 32.5632-23.9616 14.7456 0 25.1904 7.9872 31.3344 24.576 4.9152 12.288 7.3728 28.8768 7.3728 50.9952 0 20.8896-2.4576 37.4784-6.7584 49.7664-6.7584 16.5888-17.2032 25.1904-31.9488 25.1904zM17312.3584 716.8c34.4064 0 60.8256-12.288 79.2576-35.6352 15.9744-21.504 24.576-49.7664 24.576-84.1728 0-35.0208-8.6016-63.2832-24.576-84.1728-18.432-24.576-44.8512-36.2496-79.2576-36.2496s-61.44 11.6736-79.872 36.2496c-17.2032 20.8896-25.1904 49.152-25.1904 84.1728 0 34.4064 7.9872 62.0544 25.1904 84.1728 18.432 23.3472 45.4656 35.6352 79.872 35.6352z m0-44.8512c-15.36 0-26.4192-7.9872-32.5632-23.9616-4.9152-12.288-7.3728-29.4912-7.3728-50.9952 0-22.1184 2.4576-39.3216 7.3728-51.6096 6.144-15.9744 17.2032-23.9616 32.5632-23.9616 14.7456 0 25.1904 7.9872 31.3344 24.576 4.9152 12.288 7.3728 28.8768 7.3728 50.9952 0 20.8896-2.4576 37.4784-6.7584 49.7664-6.7584 16.5888-17.2032 25.1904-31.9488 25.1904z" fill="#ffffff" p-id="22056"></path><path d="M8611.4304 725.4016c50.3808 0 90.9312-22.1184 121.0368-66.3552 29.4912-44.2368 44.8512-102.6048 44.8512-173.8752 0-67.584-14.1312-119.808-42.3936-157.9008-28.2624-38.7072-69.4272-57.7536-122.88-57.7536-44.2368 0-81.1008 14.1312-110.592 43.008-29.4912 28.2624-44.2368 64.512-44.2368 108.7488 0 43.008 12.288 78.0288 38.0928 105.0624 25.8048 28.2624 60.8256 42.3936 103.8336 42.3936 22.1184 0 41.7792-4.3008 58.9824-12.288 17.8176-8.6016 33.1776-22.1184 46.08-39.936h3.072v5.5296c0 40.5504-8.6016 74.3424-25.1904 101.376-17.8176 28.2624-41.1648 43.008-70.0416 43.008-42.3936 0-67.584-20.2752-76.1856-60.8256h-70.0416c10.4448 79.872 58.9824 119.808 145.6128 119.808z m3.072-215.04c-27.0336 0-47.9232-8.6016-62.6688-24.576-15.9744-15.9744-23.3472-37.4784-23.3472-64.512s7.3728-49.152 23.3472-66.3552c15.9744-17.2032 36.864-25.8048 62.6688-25.8048 24.576 0 45.4656 7.9872 61.44 23.9616 15.9744 15.9744 23.9616 37.4784 23.9616 65.7408s-7.9872 50.3808-22.7328 66.9696c-15.36 15.9744-36.2496 24.576-62.6688 24.576z m270.9504-17.2032c13.5168 0 24.576-4.9152 34.4064-13.5168a48.3328 48.3328 0 0 0 14.1312-34.4064 47.3088 47.3088 0 0 0-14.1312-34.4064 45.9264 45.9264 0 0 0-34.4064-14.1312c-13.5168 0-25.1904 4.3008-33.792 14.1312a45.0048 45.0048 0 0 0-14.1312 34.4064c0 13.5168 4.3008 24.576 14.1312 34.4064a46.7968 46.7968 0 0 0 33.792 13.5168z m0 224.8704c13.5168 0 24.576-4.9152 34.4064-13.5168a48.3328 48.3328 0 0 0 14.1312-34.4064 47.3088 47.3088 0 0 0-14.1312-34.4064 45.9264 45.9264 0 0 0-34.4064-14.1312c-13.5168 0-25.1904 4.3008-33.792 14.1312a45.0048 45.0048 0 0 0-14.1312 34.4064c0 13.5168 4.3008 24.576 14.1312 34.4064a46.7968 46.7968 0 0 0 33.792 13.5168zM9262.08 716.8v-94.0032h65.1264v-57.1392H9262.08V278.1184h-65.7408l-214.4256 276.48v68.1984h211.968V716.8h68.1984z m-68.1984-151.1424h-153.6l151.7568-196.608h1.8432v196.608zM9535.488 716.8V278.1184h-54.0672a273.92 273.92 0 0 1-55.296 43.008 260.608 260.608 0 0 1-62.6688 25.8048v71.2704c40.5504-11.6736 73.728-29.4912 100.1472-53.4528V716.8h71.8848z m336.6912 0l39.936-109.9776h183.7056l39.936 109.9776h76.8l-167.7312-438.6816h-81.7152L9795.3792 716.8h76.8z m202.1376-168.96h-140.6976l69.4272-192.3072h2.4576l68.8128 192.3072z m253.1328 168.96V414.5152h2.4576l129.024 302.2848h62.0544l129.024-302.2848h2.4576V716.8h71.8848V278.1184h-84.1728l-148.6848 344.064h-2.4576l-149.2992-344.064h-84.1728V716.8h71.8848z" fill="#ffffff" p-id="22057"></path><path d="M5247.3856 612.8128c44.2368 0 83.8656 19.2512 110.3872 49.664L5249.1776 768l-110.7456-107.264a146.2784 146.2784 0 0 1 108.9536-47.9232z m0-152.832c87.7056 0 166.7584 36.2496 221.952 94.0544l-55.7056 54.1696a226.1504 226.1504 0 0 0-166.2464-71.7824c-65.2288 0-123.904 27.0336-164.8128 70.2464l-55.808-54.0672a306.1248 306.1248 0 0 1 220.6208-92.6208z m0-152.7808A465.92 465.92 0 0 1 5580.8 445.7984l-55.7056 54.1184a385.9968 385.9968 0 0 0-277.7088-116.3264 386.048 386.048 0 0 0-276.3776 114.944L4915.2 444.5184A465.92 465.92 0 0 1 5247.3856 307.2z" fill="#ffffff" p-id="22058"></path><path d="M2407.424 716.8l86.016-329.9328h2.4576L2581.2992 716.8h76.1856l126.5664-438.6816h-81.1008l-82.3296 333.6192h-2.4576l-86.6304-333.6192h-74.3424L2370.56 611.7376h-2.4576l-82.3296-333.6192H2204.672L2330.624 716.8h76.8z m554.8032 8.6016c42.3936 0 77.4144-12.288 105.6768-36.2496 22.1184-19.6608 36.864-44.8512 44.2368-74.3424h-70.0416c-8.6016 17.8176-17.8176 30.72-28.2624 38.7072-13.5168 9.8304-30.72 14.7456-52.224 14.7456-25.1904 0-44.8512-7.9872-58.368-23.3472-13.5168-15.36-21.504-38.0928-23.9616-67.584h237.7728c0-57.1392-12.9024-101.9904-38.0928-133.9392-27.648-35.6352-67.584-52.8384-119.808-52.8384-47.3088 0-84.7872 15.9744-111.8208 48.5376-28.2624 31.9488-41.7792 71.2704-41.7792 118.5792 0 52.8384 14.7456 94.0032 44.2368 124.1088 27.648 28.8768 65.1264 43.6224 112.4352 43.6224z m81.7152-200.9088H2880.512c4.3008-25.1904 12.9024-44.2368 25.8048-57.1392 13.5168-13.5168 31.3344-19.6608 54.6816-19.6608 49.152 0 76.8 25.1904 82.944 76.8z m326.2464 200.9088c47.3088 0 87.8592-13.5168 121.6512-40.5504 36.2496-28.8768 58.9824-68.8128 68.8128-120.4224h-70.0416c-8.6016 33.1776-23.3472 58.368-44.2368 74.9568-19.6608 14.7456-45.4656 22.7328-76.8 22.7328-47.9232 0-83.5584-15.36-106.2912-44.8512-20.8896-27.648-31.3344-67.584-31.3344-119.1936 0-50.3808 10.4448-89.7024 31.9488-117.9648 23.3472-31.9488 57.7536-47.3088 103.8336-47.3088 30.72 0 55.9104 6.144 75.5712 19.6608 20.2752 13.5168 33.792 34.4064 41.1648 63.2832h70.0416c-6.7584-44.2368-25.8048-79.872-57.7536-105.6768-33.1776-27.0336-76.1856-40.5504-127.7952-40.5504-70.0416 0-123.4944 22.7328-160.3584 69.4272-32.5632 40.5504-48.5376 94.0032-48.5376 159.1296 0 66.3552 15.36 119.1936 46.6944 158.5152 35.6352 45.4656 90.3168 68.8128 163.4304 68.8128zM3692.1344 716.8v-177.5616c0-27.0336 6.144-48.5376 19.0464-65.7408 12.288-17.2032 29.4912-25.8048 51.6096-25.8048 23.9616 0 41.7792 7.3728 54.0672 22.7328 10.4448 14.1312 15.9744 35.0208 15.9744 62.0544V716.8h70.0416v-196.608c0-42.3936-9.216-74.3424-27.0336-95.8464-19.0464-22.7328-47.9232-33.792-86.6304-33.792-20.2752 0-38.0928 3.6864-53.4528 11.6736-17.2032 8.6016-31.9488 21.504-43.6224 39.3216v-172.032h-70.0416V716.8h70.0416z m379.6992 8.6016c27.648 0 51.6096-4.9152 71.8848-14.1312 17.8176-8.6016 33.1776-20.2752 45.4656-36.2496V716.8h65.1264v-202.752c0-38.7072-9.8304-68.1984-29.4912-88.4736-22.1184-23.3472-57.1392-35.0208-103.8336-35.0208-40.5504 0-72.4992 6.7584-95.8464 21.504-27.648 15.9744-44.8512 41.7792-51.6096 76.8l69.4272 5.5296c3.6864-16.5888 12.9024-28.8768 26.4192-36.864 11.6736-7.3728 27.0336-10.4448 46.6944-10.4448 45.4656 0 68.1984 20.2752 68.1984 62.0544v12.288l-69.4272 1.8432c-46.6944 1.2288-82.944 11.0592-108.7488 29.4912-28.2624 19.0464-41.7792 46.6944-41.7792 82.3296 0 26.4192 9.8304 47.9232 29.4912 65.1264 19.0464 16.5888 44.8512 25.1904 78.0288 25.1904z m15.9744-53.4528c-15.36 0-27.648-4.3008-37.4784-11.6736a32.768 32.768 0 0 1-14.1312-27.648c0-38.0928 27.648-57.7536 83.5584-58.9824l64.512-1.8432v15.9744c0 24.576-9.8304 44.8512-28.2624 60.8256-18.432 15.36-41.1648 23.3472-68.1984 23.3472zM4490.24 716.8v-57.7536h-41.7792c-7.3728 0-12.288-1.8432-15.9744-5.5296-3.6864-4.3008-4.9152-9.8304-4.9152-17.2032V456.9088h70.656V399.1552h-70.656V296.5504l-70.0416 28.8768v73.728h-57.1392v57.7536h57.1392v179.4048c0 25.8048 6.144 44.8512 18.432 58.368 12.9024 14.7456 33.1776 22.1184 60.8256 22.1184H4490.24z" fill="#ffffff" p-id="22059"></path><path d="M448 358.4a140.8 140.8 0 1 1 0 281.6 140.8 140.8 0 0 1 0-281.6z m358.4 0a140.8 140.8 0 1 1 0 281.6 140.8 140.8 0 0 1 0-281.6z m358.4 0a140.8 140.8 0 1 1 0 281.6 140.8 140.8 0 0 1 0-281.6z m358.4 0a140.8 140.8 0 1 1 0 281.6 140.8 140.8 0 0 1 0-281.6z m358.4 0a140.8 140.8 0 1 1 0 281.6 140.8 140.8 0 0 1 0-281.6z" fill="#ffffff" p-id="22060"></path></svg>