<svg t="1623758689725" class="icon" viewBox="0 0 1024 1024" version="1.1" xmlns="http://www.w3.org/2000/svg" p-id="23057" width="200" height="200"><path d="M919.296 217.28h-207.168L908.8 63.36a25.792 25.792 0 1 0-36.16-36.736L638.528 217.28H395.776L161.664 26.624a25.92 25.92 0 0 0-36.48 0.32 25.856 25.856 0 0 0 0.384 36.416l196.672 153.92h-217.6C46.912 217.28 0 264.256 0 321.92v578.176c0 57.728 46.912 104.704 104.64 104.704h814.656c57.664 0 104.704-46.848 104.704-104.704V321.92c0-57.664-46.848-104.64-104.704-104.64z m-195.264 422.464L411.776 819.84a24.832 24.832 0 0 1-12.928 3.52 25.856 25.856 0 0 1-25.856-25.92V437.12a25.792 25.792 0 1 1 38.72-22.336l312.32 180.288a25.408 25.408 0 0 1 12.736 22.336 25.408 25.408 0 0 1-12.736 22.336z" p-id="23058" fill="#ffffff"></path></svg>