<svg t="1623758857293" class="icon" viewBox="0 0 1427 1024" version="1.1" xmlns="http://www.w3.org/2000/svg" p-id="25632" width="200" height="200"><path d="M985.407 1022.833c-14.91 0-31.765-4.278-47.324-12.058L715.858 899.663l-223.652 110.853c-14.132 7.52-30.339 11.54-46.934 11.54-21.523 0.129-42.397-6.743-59.64-19.578-31.247-23.468-47.324-64.179-39.934-101.13l45.768-237.265-175.42-163.492c-27.098-27.487-37.47-67.29-27.228-104.371l0.39-1.167c12.705-38.248 44.34-64.956 82.718-70.142l243.618-44.342L624.84 58.474C642.345 23.338 678.13 0.778 715.858 0.778c39.414 0 76.106 23.467 91.405 58.344l108.909 221.447 243.618 42.656c38.637 5.575 70.402 33.321 81.163 70.92 12.058 36.951 2.204 77.403-25.412 104.76l-0.648 0.648-174.773 164.66 44.212 237.654c7.13 37.988-8.039 76.365-39.415 100.351-16.855 13.484-37.858 20.745-59.51 20.615z m-269.55-187.997l248.027 124.078c7.26 3.63 15.688 5.964 21.393 5.964 8.816 0 17.114-2.723 23.078-7.779l1.167-0.908c14.132-10.631 21.004-27.356 17.892-43.822l-49.916-268.9 197.461-185.923c12.058-12.317 16.207-29.82 10.891-46.027l-0.518-1.686c-4.409-15.688-17.633-27.227-33.71-29.43l-1.167-0.13-273.18-47.713-122.91-249.712c-5.964-14.002-22.17-24.115-38.507-24.115-16.077 0-31.376 10.113-39.285 25.542L554.44 332.43l-274.605 49.917c-16.726 2.074-29.691 13.225-35.655 30.468-4.279 15.818 0.778 34.747 12.447 46.676l197.59 184.237-51.86 269.03c-3.112 15.558 4.278 33.45 17.892 43.693 6.871 5.186 15.688 7.909 25.023 7.909 7.13 0 14.002-1.686 19.966-4.798l0.908-0.518 249.712-124.208z m0 0" p-id="25633" fill="#ffffff"></path></svg>