<svg t="1623759006825" class="icon" viewBox="0 0 1024 1024" version="1.1" xmlns="http://www.w3.org/2000/svg" p-id="28678" width="200" height="200"><path d="M579.14 662.226c-55.51 0-111.019-21.132-153.283-63.397-11.479-11.478-11.479-30.139 0-41.617 11.478-11.479 30.138-11.479 41.617 0 61.572 61.572 161.701 61.572 223.274 0L904.78 343.18c61.572-61.573 61.572-161.701 0-223.274-61.573-61.572-161.702-61.572-223.274 0L500.909 300.503c-11.478 11.479-30.139 11.479-41.617 0-11.479-11.479-11.479-30.139 0-41.617L639.889 78.289c84.53-84.53 222.037-84.53 306.508 0 84.47 84.53 84.53 222.037 0 306.508L732.365 598.83c-42.265 42.265-97.774 63.397-153.284 63.397h0.06z m-353.188 353.189c-55.51 0-111.019-21.133-153.283-63.398-84.53-84.53-84.53-222.037 0-306.508L286.7 431.477c84.53-84.53 222.037-84.53 306.508 0 11.479 11.479 11.479 30.139 0 41.617-11.479 11.479-30.139 11.479-41.617 0-61.573-61.572-161.702-61.572-223.274 0L114.286 687.126c-61.573 61.573-61.573 161.702 0 223.274 61.572 61.572 161.701 61.572 223.274 0l180.596-180.597c11.48-11.478 30.14-11.478 41.618 0 11.478 11.479 11.478 30.139 0 41.617L379.177 952.017c-42.265 42.265-97.774 63.398-153.284 63.398h0.06z" fill="#ffffff" p-id="28679"></path></svg>