<svg t="1623759065903" class="icon" viewBox="0 0 1024 1024" version="1.1" xmlns="http://www.w3.org/2000/svg" p-id="29555" width="200" height="200"><path d="M0 0h1024v1024H0z" fill="#ffffff" fill-opacity="0" p-id="29556"></path><path d="M415.232 466.432H153.6c-28.16 0-51.2-23.04-51.2-51.2V153.6c0-28.16 23.04-51.2 51.2-51.2h261.632c28.16 0 51.2 23.04 51.2 51.2v261.632c0 28.16-23.04 51.2-51.2 51.2zM153.6 143.36c-5.632 0-10.24 4.608-10.24 10.24v261.632c0 5.632 4.608 10.24 10.24 10.24h261.632c5.632 0 10.24-4.608 10.24-10.24V153.6c0-5.632-4.608-10.24-10.24-10.24H153.6zM870.4 466.432h-261.632c-28.16 0-51.2-23.04-51.2-51.2V153.6c0-28.16 23.04-51.2 51.2-51.2H870.4c28.16 0 51.2 23.04 51.2 51.2v261.632c0 28.16-23.04 51.2-51.2 51.2zM608.768 143.36c-5.632 0-10.24 4.608-10.24 10.24v261.632c0 5.632 4.608 10.24 10.24 10.24H870.4c5.632 0 10.24-4.608 10.24-10.24V153.6c0-5.632-4.608-10.24-10.24-10.24h-261.632zM415.232 921.6H153.6c-28.16 0-51.2-23.04-51.2-51.2v-261.632c0-28.16 23.04-51.2 51.2-51.2h261.632c28.16 0 51.2 23.04 51.2 51.2V870.4c0 28.16-23.04 51.2-51.2 51.2zM153.6 598.528c-5.632 0-10.24 4.608-10.24 10.24V870.4c0 5.632 4.608 10.24 10.24 10.24h261.632c5.632 0 10.24-4.608 10.24-10.24v-261.632c0-5.632-4.608-10.24-10.24-10.24H153.6zM625.664 919.552c-11.264 0-20.48-9.216-20.48-20.48v-272.896c0-11.264 9.216-20.48 20.48-20.48s20.48 9.216 20.48 20.48v272.896c0 11.264-9.216 20.48-20.48 20.48zM739.328 919.552c-11.264 0-20.48-9.216-20.48-20.48V716.8c0-11.264 9.216-20.48 20.48-20.48s20.48 9.216 20.48 20.48v182.272c0 11.264-8.704 20.48-20.48 20.48zM853.504 919.552c-11.264 0-20.48-9.216-20.48-20.48v-318.976c0-11.264 9.216-20.48 20.48-20.48s20.48 9.216 20.48 20.48v318.464c0 11.776-9.216 20.992-20.48 20.992z" fill="#ffffff" p-id="29557"></path></svg>