<svg t="1623758756562" class="icon" viewBox="0 0 1024 1024" version="1.1" xmlns="http://www.w3.org/2000/svg" p-id="23919" width="200" height="200"><path d="M1006.933333 793.6c46.933333 76.8-8.533333 179.2-106.666666 179.2h-780.8c-93.866667 0-149.333333-102.4-102.4-179.2l392.533333-686.933333c21.333333-42.666667 59.733333-64 102.4-64s81.066667 21.333333 102.4 64l392.533333 686.933333z m-81.066666 46.933333l-392.533334-691.2-4.266666-4.266666c-4.266667-8.533333-8.533333-8.533333-17.066667-8.533334s-17.066667 4.266667-17.066667 8.533334l-4.266666 4.266666-392.533334 691.2c-8.533333 17.066667 4.266667 38.4 21.333334 38.4h780.8c25.6 0 38.4-21.333333 25.6-38.4z m-456.533334-226.133333v-200.533333-29.866667h85.333334v256h-85.333334v-25.6z m4.266667 170.666667c-8.533333-17.066667-4.266667-34.133333 8.533333-46.933334 12.8-12.8 29.866667-17.066667 46.933334-8.533333 17.066667 8.533333 25.6 21.333333 25.6 38.4 0 21.333333-17.066667 42.666667-42.666667 42.666667-17.066667 0-34.133333-12.8-38.4-25.6z" fill="#ffffff" p-id="23920"></path></svg>