<svg t="1623758817495" class="icon" viewBox="0 0 1024 1024" version="1.1" xmlns="http://www.w3.org/2000/svg" p-id="24787" width="200" height="200"><path d="M979.46 937.839h-934.92c0 0 0 0 0 0-20.111 0-36.414 16.303-36.414 36.414 0 20.111 16.303 36.414 36.414 36.414 0 0 0 0 0 0h934.92c0 0 0 0 0 0 20.111 0 36.414-16.303 36.414-36.414 0-20.111-16.303-36.414-36.414-36.414 0 0 0 0 0 0zM484.91 860.034c6.683 6.881 16.023 11.151 26.359 11.151 0.035 0 0.071 0 0.106 0 10.407-0.099 19.797-4.393 26.572-11.27l400.562-401.254c6.968-6.703 11.307-16.095 11.34-26.5-0.279-20.339-16.743-36.846-37.143-37.193-0.237-0.005-0.484-0.007-0.732-0.007-10.113 0-19.246 4.203-25.744 10.957l-337.691 337.944v-703.836c0 0 0 0 0 0 0-20.528-16.642-37.17-37.17-37.17-20.528 0-37.17 16.642-37.17 37.17 0 0 0 0 0 0v703.71l-337.68-337.869c-6.676-6.77-15.949-10.963-26.201-10.963-0.091 0-0.182 0-0.273 0.001-20.397 0.348-36.846 16.822-37.156 37.209 0.027 10.418 4.381 19.79 11.357 26.436l400.663 401.42z" fill="#ffffff" p-id="24788"></path></svg>