<svg t="1623758887250" class="icon" viewBox="0 0 1024 1024" version="1.1" xmlns="http://www.w3.org/2000/svg" p-id="25871" width="200" height="200"><path d="M665.6 204.8a102.4512 102.4512 0 0 1 99.1744 76.8H768a102.4 102.4 0 0 1 102.4 102.4v307.2a102.4 102.4 0 0 1-102.4 102.4H256a102.4 102.4 0 0 1-102.4-102.4V384a102.4 102.4 0 0 1 102.4-102.4h3.2256c11.3664-44.16 51.456-76.8 99.1744-76.8h307.2z m-153.6 147.2a160 160 0 1 0 0 320 160 160 0 0 0 0-320z m0 64a96 96 0 1 1 0 192 96 96 0 0 1 0-192z" p-id="25872" fill="#ffffff"></path></svg>