<svg t="1623758970081" class="icon" viewBox="0 0 1024 1024" version="1.1" xmlns="http://www.w3.org/2000/svg" p-id="27808" width="200" height="200"><path d="M494.85312 256.5632l39.80288-39.76192 12.36992-12.6208a240.62976 240.62976 0 0 1 164.736-66.39616c131.42016 0 237.83424 105.78944 237.83424 268.4672 0 126.27968-77.5424 246.76864-208.55296 356.56192a1143.7824 1143.7824 0 0 1-109.91616 81.40288c-57.51808 36.70016-110.45888 61.952-120.07936 61.952-12.27776 0-166.08768-89.6768-242.82112-153.69216-56.03328-48.384-101.504-98.60608-134.4768-150.272-39.61856-62.08-61.16352-126.2848-61.16352-191.872 0-166.8864 107.08992-276.50048 237.83424-276.50048 7.68512 0 23.38816 0.6656 38.40512 3.23072 15.0272 2.56 28.8768 6.87104 33.18784 8.30976a33.75616 33.75616 0 0 0 42.68544-21.34016 33.69984 33.69984 0 0 0-21.36576-42.63424c-5.07904-1.71008-21.31968-7.05024-38.41024-10.0608-17.09056-3.01056-43.66336-4.89472-54.5024-4.89472-168.34048 0-305.29536 140.16512-305.29536 343.88992 0 149.20192 88.56064 284.9536 234.85952 406.56896 22.66624 18.82624 111.5392 84.36224 233.46688 153.728 23.92576 13.61408 46.37184 14.96576 79.95904-2.87744 57.8816-33.90976 113.65376-66.79552 135.9616-81.76128 49.51552-33.152 94.94528-71.47008 94.94528-71.47008 144.77312-121.344 232.6528-257.91488 232.6528-408.18176 0-199.9616-136.6784-335.85152-305.28512-335.85152-78.6176 0-153.99424 30.86336-212.05504 85.76l-12.67712 12.93824-63.6416 63.56992a33.62304 33.62304 0 0 0-9.49248 28.97408 33.6128 33.6128 0 0 0 9.49248 18.82624l151.02976 150.8608-151.02976 150.85056a33.664 33.664 0 0 0-0.10752 47.64672l95.54944 95.43168a33.7664 33.7664 0 0 0 47.7184 0 33.67936 33.67936 0 0 0 0-47.66208l-71.59808-71.60832L644.8128 456.2944a33.75616 33.75616 0 0 0 2.18112-47.72864c-0.23552-0.24064-50.944-50.90816-152.1408-152.00256z" fill="#ffffff" p-id="27809"></path></svg>