<svg t="1623758931965" class="icon" viewBox="0 0 1144 1024" version="1.1" xmlns="http://www.w3.org/2000/svg" p-id="26947" width="200" height="200"><path d="M227.328 850.160941c-7.107765 0-21.323294 0-28.431059-7.228235-21.263059-14.576941-21.263059-36.382118 0-50.898824L383.698824 537.720471c14.215529-14.516706 35.538824-14.516706 56.862117-7.228236l163.358118 108.965647 291.297882-305.212235c14.215529-14.516706 85.232941-87.160471 127.87953-7.228235v515.915294c-7.107765 7.228235-795.708235 7.228235-795.708236 7.228235zM291.297882 145.347765c49.694118 0 92.340706 43.610353 92.340706 94.448941 0 50.838588-35.538824 94.448941-92.340706 94.448941-49.754353 0-92.400941-43.610353-92.400941-94.448941 0-50.838588 42.646588-94.448941 92.400941-94.448941zM1044.359529 0H92.340706C35.538824 0 0 36.321882 0 87.220706v806.550588c0 43.610353 35.538824 87.220706 92.340706 87.220706h959.126588c49.694118 0 92.340706-43.610353 92.340706-87.220706V87.220706C1136.64 43.610353 1101.101176 0 1044.359529 0z" p-id="26948" fill="#ffffff"></path></svg>