<?xml version="1.0" encoding="utf-8"?>
<svg version="1.1" xmlns:xlink="http://www.w3.org/1999/xlink" width="44px" height="37px" xmlns="http://www.w3.org/2000/svg">
  <g>
    <path d="M 23.0803571428571 36.56640625  C 22.7857142857143 36.85546875  22.4255952380952 37  22 37  C 21.5744047619048 37  21.2142857142857 36.85546875  20.9196428571429 36.56640625  L 5.59821428571429 22.0651041666667  C 5.43452380952381 21.9366319444444  5.20944940476191 21.7278645833333  4.92299107142857 21.4388020833333  C 4.63653273809524 21.1497395833333  4.18229166666667 20.6238064236111  3.56026785714286 19.8610026041667  C 2.93824404761905 19.0981987847222  2.38169642857143 18.3153211805556  1.890625 17.5123697916667  C 1.39955357142857 16.7094184027778  0.961681547619048 15.7378472222222  0.577008928571429 14.59765625  C 0.19233630952381 13.4574652777778  0 12.3493923611111  0 11.2734375  C 0 7.74045138888889  1.03943452380952 4.97829861111111  3.11830357142857 2.98697916666667  C 5.19717261904762 0.995659722222222  8.06994047619048 0  11.7366071428571 0  C 12.7514880952381 0  13.7868303571429 0.172634548611109  14.8426339285714 0.517903645833335  C 15.8984375 0.863172743055552  16.8805803571429 1.32888454861111  17.7890625 1.9150390625  C 18.6975446428571 2.50119357638889  19.4791666666667 3.05121527777777  20.1339285714286 3.56510416666667  C 20.7886904761905 4.07899305555555  21.4107142857143 4.625  22 5.203125  C 22.5892857142857 4.625  23.2113095238095 4.07899305555555  23.8660714285714 3.56510416666667  C 24.5208333333333 3.05121527777777  25.3024553571429 2.50119357638889  26.2109375 1.9150390625  C 27.1194196428571 1.32888454861111  28.1015625 0.863172743055552  29.1573660714286 0.517903645833335  C 30.2131696428571 0.172634548611109  31.2485119047619 0  32.2633928571429 0  C 35.9300595238095 0  38.8028273809524 0.995659722222222  40.8816964285714 2.98697916666667  C 42.9605654761905 4.97829861111111  44 7.74045138888889  44 11.2734375  C 44 14.8224826388889  42.1257440476191 18.4357638888889  38.3772321428571 22.11328125  L 23.0803571428571 36.56640625  Z " fill-rule="nonzero" fill="#ffffff" stroke="none" />
  </g>
</svg>