<svg t="1623550344923" class="icon" viewBox="0 0 1024 1024" version="1.1" xmlns="http://www.w3.org/2000/svg" p-id="9106" width="200" height="200"><path d="M512 74.666667C282.24 74.666667 96 260.906667 96 490.666667c0 107.605333 41.088 208.874667 113.472 285.546666l62.058667-58.581333-5.888-6.378667A329.237333 329.237333 0 0 1 181.333333 490.666667c0-182.613333 148.053333-330.666667 330.666667-330.666667 182.613333 0 330.666667 148.053333 330.666667 330.666667 0 182.613333-148.053333 330.666667-330.666667 330.666666H138.666667v85.333334H512l7.317333-0.042667C745.685333 902.72 928 717.973333 928 490.666667c0-229.76-186.24-416-416-416zM362.666667 533.333333v85.333334h213.333333v-85.333334H362.666667z m0-170.666666v85.333333h341.333333v-85.333333H362.666667z" fill="#63656B" p-id="9107"></path></svg>