<?xml version="1.0" encoding="utf-8"?>
<svg version="1.1" xmlns:xlink="http://www.w3.org/1999/xlink" width="44px" height="37px" xmlns="http://www.w3.org/2000/svg">
  <g transform="matrix(1 0 0 1 -386 -502 )">
    <path d="M 14.7935267857143 17.9591362126246  C 15.4073660714286 17.3445182724252  15.7142857142857 16.6028792912514  15.7142857142857 15.734219269103  C 15.7142857142857 14.8655592469546  15.4073660714286 14.1239202657807  14.7935267857143 13.5093023255814  C 14.1796875 12.8946843853821  13.4389880952381 12.5873754152824  12.5714285714286 12.5873754152824  C 11.703869047619 12.5873754152824  10.9631696428571 12.8946843853821  10.3493303571429 13.5093023255814  C 9.73549107142857 14.1239202657807  9.42857142857143 14.8655592469546  9.42857142857143 15.734219269103  C 9.42857142857143 16.6028792912514  9.73549107142857 17.3445182724252  10.3493303571429 17.9591362126246  C 10.9631696428571 18.5737541528239  11.703869047619 18.8810631229236  12.5714285714286 18.8810631229236  C 13.4389880952381 18.8810631229236  14.1796875 18.5737541528239  14.7935267857143 17.9591362126246  Z M 24.2220982142857 17.9591362126246  C 24.8359375 17.3445182724252  25.1428571428571 16.6028792912514  25.1428571428571 15.734219269103  C 25.1428571428571 14.8655592469546  24.8359375 14.1239202657807  24.2220982142857 13.5093023255814  C 23.6082589285714 12.8946843853821  22.8675595238095 12.5873754152824  22 12.5873754152824  C 21.1324404761905 12.5873754152824  20.3917410714286 12.8946843853821  19.7779017857143 13.5093023255814  C 19.1640625 14.1239202657807  18.8571428571429 14.8655592469546  18.8571428571429 15.734219269103  C 18.8571428571429 16.6028792912514  19.1640625 17.3445182724252  19.7779017857143 17.9591362126246  C 20.3917410714286 18.5737541528239  21.1324404761905 18.8810631229236  22 18.8810631229236  C 22.8675595238095 18.8810631229236  23.6082589285714 18.5737541528239  24.2220982142857 17.9591362126246  Z M 33.6506696428571 17.9591362126246  C 34.2645089285714 17.3445182724252  34.5714285714286 16.6028792912514  34.5714285714286 15.734219269103  C 34.5714285714286 14.8655592469546  34.2645089285714 14.1239202657807  33.6506696428571 13.5093023255814  C 33.0368303571429 12.8946843853821  32.296130952381 12.5873754152824  31.4285714285714 12.5873754152824  C 30.5610119047619 12.5873754152824  29.8203125 12.8946843853821  29.2064732142857 13.5093023255814  C 28.5926339285714 14.1239202657807  28.2857142857143 14.8655592469546  28.2857142857143 15.734219269103  C 28.2857142857143 16.6028792912514  28.5926339285714 17.3445182724252  29.2064732142857 17.9591362126246  C 29.8203125 18.5737541528239  30.5610119047619 18.8810631229236  31.4285714285714 18.8810631229236  C 32.296130952381 18.8810631229236  33.0368303571429 18.5737541528239  33.6506696428571 17.9591362126246  Z M 41.0535714285714 7.83023255813953  C 43.0178571428571 10.2477297895903  44 12.8823920265781  44 15.734219269103  C 44 18.5860465116279  43.0178571428571 21.2207087486157  41.0535714285714 23.6382059800664  C 39.0892857142857 26.0557032115172  36.421130952381 27.9651162790698  33.0491071428571 29.3664451827243  C 29.6770833333333 30.7677740863787  25.9940476190476 31.468438538206  22 31.468438538206  C 20.1994047619048 31.468438538206  18.4724702380952 31.3209302325581  16.8191964285714 31.0259136212625  C 13.9873511904762 33.8613510520487  10.4270833333333 35.737984496124  6.13839285714286 36.6558139534884  C 5.28720238095238 36.8197120708749  4.58333333333333 36.9262458471761  4.02678571428571 36.975415282392  C 3.83035714285714 36.9918050941307  3.65029761904762 36.9426356589147  3.48660714285714 36.8279069767442  C 3.32291666666667 36.7131782945736  3.21651785714286 36.5656699889258  3.16741071428571 36.3853820598007  C 3.10193452380952 36.1395348837209  3.265625 35.8363233665559  3.65848214285714 35.4757475083056  C 3.74032738095238 35.3937984496124  3.93266369047619 35.2176079734219  4.23549107142857 34.9471760797342  C 4.53831845238095 34.6767441860465  4.74702380952381 34.4841638981174  4.86160714285714 34.3694352159468  C 4.97619047619048 34.2547065337763  5.16852678571429 34.0457364341085  5.43861607142857 33.7425249169435  C 5.70870535714286 33.4393133997785  5.90513392857143 33.1811738648948  6.02790178571429 32.9681063122924  C 6.15066964285714 32.7550387596899  6.31845238095238 32.4518272425249  6.53125 32.0584717607973  C 6.74404761904762 31.6651162790698  6.9077380952381 31.2717607973422  7.02232142857143 30.8784053156146  C 7.13690476190476 30.485049833887  7.25558035714286 30.0138427464009  7.37834821428571 29.4647840531561  C 7.50111607142857 28.9157253599114  7.60342261904762 28.3215946843854  7.68526785714286 27.6823920265781  C 5.29538690476191 26.2073089700997  3.41703869047619 24.4331118493909  2.05022321428571 22.3598006644518  C 0.683407738095238 20.2864894795127  0 18.0779623477298  0 15.734219269103  C 0 12.8823920265781  0.982142857142857 10.2477297895903  2.94642857142857 7.83023255813953  C 4.91071428571429 5.41273532668881  7.57886904761905 3.50332225913621  10.9508928571429 2.10199335548173  C 14.3229166666667 0.700664451827244  18.0059523809524 0  22 0  C 25.9940476190476 0  29.6770833333333 0.700664451827244  33.0491071428571 2.10199335548173  C 36.421130952381 3.50332225913621  39.0892857142857 5.41273532668881  41.0535714285714 7.83023255813953  Z " fill-rule="nonzero" fill="#ffffff" stroke="none" transform="matrix(1 0 0 1 386 502 )" />
  </g>
</svg>