<svg t="1623397800581" class="icon" viewBox="0 0 1024 1024" version="1.1" xmlns="http://www.w3.org/2000/svg" p-id="18477" width="200" height="200"><path d="M711.55 67.981c11.7 6.663 15.844 21.532 9.182 33.232L631.023 256h208.475c48.78 0 88.502 37.735 88.502 84.075v503.85c0 46.34-39.722 84.075-88.502 84.075H184.502C135.722 928 96 890.265 96 843.925v-503.85C96 293.735 135.722 256 184.502 256h193.443l-89.707-154.787c-6.663-11.7-2.519-26.57 9.181-33.232 11.7-6.662 26.569-2.518 33.231 9.182L434.342 256h140.331L678.319 77.163c6.663-11.7 21.532-15.844 33.232-9.182zM841.163 304H182.838C161.456 304 144 320.461 144 340.624v502.752C144 863.54 161.456 880 182.838 880h658.324C862.544 880 880 863.539 880 843.376V340.624C880 320.46 862.544 304 841.162 304zM443.425 427.988l0.894 0.406 211.332 109.282c19.175 9.912 31.118 29.493 31.118 51.025 0 21.043-11.456 40.3-29.9 50.456l-211.9 116.025-0.487 0.244c-7.557 3.737-15.682 5.606-23.888 5.606-9.831 0-19.662-2.762-28.356-8.125-15.925-9.912-25.431-26.975-25.431-45.744V476.738c0-18.525 9.343-35.506 24.943-45.419 15.6-9.912 34.938-11.212 51.675-3.331z m-22.75 43.631c-1.137 0-2.03 0.406-2.68 0.813-1.057 0.65-2.357 1.95-2.357 4.306v230.425c0 2.356 1.3 3.656 2.437 4.306 1.057 0.65 2.682 1.22 4.632 0.407L633.55 596.419c2.762-1.543 4.55-4.468 4.55-7.637 0-3.25-1.788-6.256-4.713-7.719L422.544 471.944a5.332 5.332 0 0 0-1.869-0.325z" p-id="18478" fill="#ffffff"></path></svg>