<svg t="1623661003939" class="icon" viewBox="0 0 1024 1024" version="1.1" xmlns="http://www.w3.org/2000/svg" p-id="2249" width="200" height="200"><path d="M288 421.034667a48.042667 48.042667 0 1 0 96 0 48.042667 48.042667 0 0 0-96 0z m352 0a48.042667 48.042667 0 1 0 96 0 48.042667 48.042667 0 0 0-96 0zM512 64a448 448 0 1 0 0 896A448 448 0 0 0 512 64z m262.997333 710.997333c-34.133333 34.133333-73.984 61.013333-118.272 79.786667A368.213333 368.213333 0 0 1 512 884.053333a370.346667 370.346667 0 0 1-263.082667-108.970666A369.92 369.92 0 0 1 139.946667 512a370.346667 370.346667 0 0 1 108.970666-263.082667A369.92 369.92 0 0 1 512 139.946667a370.346667 370.346667 0 0 1 263.082667 108.970666A369.92 369.92 0 0 1 884.053333 512a369.066667 369.066667 0 0 1-108.970666 262.997333z m-110.933333-242.005333h-48.128a8.106667 8.106667 0 0 0-8.106667 7.424 96.170667 96.170667 0 0 1-191.658666 0 8.106667 8.106667 0 0 0-8.106667-7.424H360.106667a8.021333 8.021333 0 0 0-8.021334 8.448A160.426667 160.426667 0 0 0 512 692.906667a160.426667 160.426667 0 0 0 160-151.552 8.021333 8.021333 0 0 0-8.021333-8.448z" p-id="2250" fill="#505056"></path></svg>