<?xml version="1.0" encoding="utf-8"?>
<svg version="1.1" xmlns:xlink="http://www.w3.org/1999/xlink" width="39px" height="38px" xmlns="http://www.w3.org/2000/svg">
  <g transform="matrix(1 0 0 1 -17 -8 )">
    <path d="M 36.5 8  C 47.42 8  56 16.36  56 27  C 56 37.64  47.42 46  36.5 46  C 25.58 46  17 37.64  17 27  C 17 16.36  25.58 8  36.5 8  Z " fill-rule="nonzero" fill="#ffffff" stroke="none" />
    <path d="M 36.5 8.5  C 47.14 8.5  55.5 16.64  55.5 27  C 55.5 37.36  47.14 45.5  36.5 45.5  C 25.86 45.5  17.5 37.36  17.5 27  C 17.5 16.64  25.86 8.5  36.5 8.5  Z " stroke-width="1" stroke="#797979" fill="none" />
  </g>
</svg>