<svg t="1623744516333" class="icon" viewBox="0 0 1024 1024" version="1.1" xmlns="http://www.w3.org/2000/svg" p-id="3840" width="200" height="200"><path d="M589.501738 498.891096L995.557856 92.834979a53.173298 53.173298 0 0 0 0-74.852107l-1.987224-1.987224a53.173298 53.173298 0 0 0-74.852107 0L512 422.051765 105.943883 15.33324a53.173298 53.173298 0 0 0-74.852106 0L29.104552 17.320464a51.99903 51.99903 0 0 0 0 74.852107L435.16067 498.891096 29.104552 904.947213a53.173298 53.173298 0 0 0 0 74.852106l1.987225 1.987224a53.173298 53.173298 0 0 0 74.852106 0L512 575.730426l406.056117 406.056117a53.173298 53.173298 0 0 0 74.852106 0l1.987225-1.987224a53.173298 53.173298 0 0 0 0-74.852106L589.501738 498.891096z" p-id="3841" fill="#ffffff"></path></svg>