<svg t="1623759446073" class="icon" viewBox="0 0 1024 1024" version="1.1" xmlns="http://www.w3.org/2000/svg" p-id="32460" width="200" height="200"><path d="M565.930667 817.493333a34.816 34.816 0 0 0 9.813333 29.44l0.341333 0.256a35.498667 35.498667 0 0 0 25.6 11.008c11.093333 0 20.650667-5.461333 27.221334-13.312l354.56-387.072a35.157333 35.157333 0 0 0 10.24-27.136 34.986667 34.986667 0 0 0-10.24-27.136L626.858667 14.336a36.522667 36.522667 0 0 0-51.2 0 34.986667 34.986667 0 0 0-9.728 29.354667V253.44c-296.021333 0-535.893333 238.933333-535.893334 533.674667-0.085333 73.130667 15.018667 145.493333 44.373334 212.48C116.736 777.386667 329.813333 608.426667 565.333333 608.426667l0.597334 209.066666z" p-id="32461" fill="#ffffff"></path></svg>