<?xml version="1.0" encoding="utf-8"?>
<svg version="1.1" xmlns:xlink="http://www.w3.org/1999/xlink" width="20px" height="20px" xmlns="http://www.w3.org/2000/svg">
  <g transform="matrix(1 0 0 1 -53 -38 )">
    <path d="M 63 39  C 68.04 39  72 42.96  72 48  C 72 53.04  68.04 57  63 57  C 57.96 57  54 53.04  54 48  C 54 42.96  57.96 39  63 39  Z " fill-rule="nonzero" fill="#51d22c" stroke="none" />
    <path d="M 63 39  C 68.04 39  72 42.96  72 48  C 72 53.04  68.04 57  63 57  C 57.96 57  54 53.04  54 48  C 54 42.96  57.96 39  63 39  Z " stroke-width="2" stroke="#181617" fill="none" />
  </g>
</svg>