<svg t="1623752451656" class="icon" viewBox="0 0 1024 1024" version="1.1" xmlns="http://www.w3.org/2000/svg" p-id="14897" width="200" height="200"><path d="M558.538943 794.959513c-1.106194 9.435906 1.490957 19.189038 8.80248 26.390044 0.083911 0.105401 0.190335 0.12075 0.276293 0.207731 5.836939 6.021134 13.953803 9.838066 23.026436 9.838066 9.989515 0 18.559705-4.824889 24.447808-11.93789L933.688111 471.624431c6.777357-6.696516 9.664104-15.58086 9.207709-24.362874 0.456395-8.760524-2.430352-17.641799-9.207709-24.342408L613.338013 73.17765c-12.703323-12.547781-33.295314-12.547781-45.995567 0-7.311523 7.235798-9.909697 16.968463-8.80248 26.408463l0 188.327226c-265.993097 0-481.619062 214.716246-481.619062 479.542774 0 67.931159 14.371312 132.458801 39.954991 191.015452 37.997406-199.74323 229.450832-351.458607 441.10637-351.458607C557.982264 617.908098 558.538943 794.959513 558.538943 794.959513zM622.754476 543.682583l0 171.722036L868.340801 447.279976 622.754476 179.156356l0 172.693154c0 0-80.158644-0.832971-96.844675-0.313132-226.479151 7.013741-383.776663 263.787872-384.771317 383.942439 69.183685-88.454588 251.012917-192.350866 384.771317-192.350866C546.902928 543.126928 622.754476 543.682583 622.754476 543.682583z" p-id="14898" fill="#ffffff"></path></svg>