<?xml version="1.0" encoding="utf-8"?>
<svg version="1.1" xmlns:xlink="http://www.w3.org/1999/xlink" width="10px" height="7px" xmlns="http://www.w3.org/2000/svg">
  <g transform="matrix(1 0 0 1 -1138 -256 )">
    <path d="M 9.814453125 0.230902777777778  C 9.93815104166667 0.384837962962961  10 0.567129629629628  10 0.777777777777778  C 10 0.988425925925925  9.93815104166667 1.17071759259259  9.814453125 1.32465277777778  L 5.439453125 6.76909722222222  C 5.31575520833333 6.9230324074074  5.16927083333333 7  5 7  C 4.83072916666667 7  4.68424479166667 6.9230324074074  4.560546875 6.76909722222222  L 0.185546875 1.32465277777778  C 0.0618489583333333 1.17071759259259  0 0.988425925925925  0 0.777777777777778  C 0 0.567129629629628  0.0618489583333333 0.384837962962961  0.185546875 0.230902777777778  C 0.309244791666667 0.0769675925925917  0.455729166666667 0  0.625 0  L 9.375 0  C 9.54427083333333 0  9.69075520833333 0.0769675925925917  9.814453125 0.230902777777778  Z " fill-rule="nonzero" fill="#ffffff" stroke="none" transform="matrix(1 0 0 1 1138 256 )" />
  </g>
</svg>