<?xml version="1.0" encoding="utf-8"?>
<svg version="1.1" xmlns:xlink="http://www.w3.org/1999/xlink" width="220px" height="391px" xmlns="http://www.w3.org/2000/svg">
  <g>
    <path d="M 0 0  L 220 0  L 220 391  L 0 391  L 0 0  " fill-rule="nonzero" fill="#cccccc" stroke="none" />
    <path d="M 15 15  L 205 15  L 205 376  L 15 376  L 15 15  " fill-rule="nonzero" fill="#ffffff" stroke="none" />
    <path d="M 130.9 91.65  C 121.66 91.65  114.4 84.39  114.4 75.15  C 114.4 65.91  121.66 58.65  130.9 58.65  C 140.14 58.65  147.4 65.91  147.4 75.15  C 147.4 84.39  140.14 91.65  130.9 91.65  " fill-rule="nonzero" fill="#cccccc" stroke="none" />
    <path d="M 21 371  L 21 178.5  L 65.75 91  L 128.4 161  L 164.2 143.5  L 200 161  L 200 371  L 21 371  " fill-rule="nonzero" fill="#169bd5" stroke="none" />
  </g>
</svg>