<svg t="1623411629075" class="icon" viewBox="0 0 1024 1024" version="1.1" xmlns="http://www.w3.org/2000/svg" p-id="19513" data-spm-anchor-id="a313x.7781069.0.i6" width="200" height="200"><path d="M512 1024C229.238 1024 0 794.762 0 512S229.238 0 512 0s512 229.238 512 512-229.238 512-512 512z m236.308-551.385H551.385V275.692a39.385 39.385 0 1 0-78.77 0v196.923H275.692a39.385 39.385 0 1 0 0 78.77h196.923v196.923a39.385 39.385 0 1 0 78.77 0V551.385h196.923a39.385 39.385 0 0 0 0-78.77z" p-id="19514" fill="#d81e06"></path></svg>