<?xml version="1.0" encoding="utf-8"?>
<svg version="1.1" xmlns:xlink="http://www.w3.org/1999/xlink" width="220px" height="391px" xmlns="http://www.w3.org/2000/svg">
  <g transform="matrix(1 0 0 1 -223 -143 )">
    <path d="M 223 143  L 443 143  L 443 534  L 223 534  L 223 143  " fill-rule="nonzero" fill="#cccccc" stroke="none" />
    <path d="M 238 158  L 428 158  L 428 519  L 238 519  L 238 158  " fill-rule="nonzero" fill="#ffffff" stroke="none" />
    <path d="M 353.9 234.65  C 344.66 234.65  337.4 227.39  337.4 218.15  C 337.4 208.91  344.66 201.65  353.9 201.65  C 363.14 201.65  370.4 208.91  370.4 218.15  C 370.4 227.39  363.14 234.65  353.9 234.65  " fill-rule="nonzero" fill="#cccccc" stroke="none" />
    <path d="M 244 514  L 244 321.5  L 288.75 234  L 351.4 304  L 387.2 286.5  L 423 304  L 423 514  L 244 514  " fill-rule="nonzero" fill="#169bd5" stroke="none" />
  </g>
</svg>