<?xml version="1.0" encoding="utf-8"?>
<svg version="1.1" xmlns:xlink="http://www.w3.org/1999/xlink" width="23px" height="19px" xmlns="http://www.w3.org/2000/svg">
  <g>
    <path d="M 12.0647321428571 18.77734375  C 11.9107142857143 18.92578125  11.7224702380952 19  11.5 19  C 11.2775297619048 19  11.0892857142857 18.92578125  10.9352678571429 18.77734375  L 2.92633928571429 11.3307291666667  C 2.84077380952381 11.2647569444444  2.72312127976191 11.1575520833333  2.57338169642857 11.0091145833333  C 2.42364211309524 10.8606770833333  2.18619791666667 10.5906032986111  1.86104910714286 10.1988932291667  C 1.53590029761905 9.80718315972222  1.24497767857143 9.40516493055555  0.98828125 8.99283854166667  C 0.731584821428571 8.58051215277778  0.502697172619048 8.08159722222222  0.301618303571429 7.49609375  C 0.10053943452381 6.91059027777778  0 6.34157986111111  0 5.7890625  C 0 3.97482638888889  0.543340773809524 2.55642361111111  1.63002232142857 1.53385416666667  C 2.71670386904762 0.511284722222222  4.21837797619048 0  6.13504464285714 0  C 6.66555059523809 0  7.20675223214286 0.0886501736111099  7.75864955357143 0.265950520833334  C 8.310546875 0.443250868055554  8.82393973214286 0.68240017361111  9.298828125 0.9833984375  C 9.77371651785714 1.28439670138889  10.1822916666667 1.56684027777778  10.5245535714286 1.83072916666667  C 10.8668154761905 2.09461805555555  11.1919642857143 2.375  11.5 2.671875  C 11.8080357142857 2.375  12.1331845238095 2.09461805555555  12.4754464285714 1.83072916666667  C 12.8177083333333 1.56684027777778  13.2262834821429 1.28439670138889  13.701171875 0.9833984375  C 14.1760602678571 0.68240017361111  14.689453125 0.443250868055554  15.2413504464286 0.265950520833334  C 15.7932477678571 0.0886501736111099  16.3344494047619 0  16.8649553571429 0  C 18.7816220238095 0  20.2832961309524 0.511284722222222  21.3699776785714 1.53385416666667  C 22.4566592261905 2.55642361111111  23 3.97482638888889  23 5.7890625  C 23 7.61154513888889  22.020275297619 9.46701388888889  20.0608258928571 11.35546875  L 12.0647321428571 18.77734375  Z " fill-rule="nonzero" fill="#bfbfc1" stroke="none" />
  </g>
</svg>