<?xml version="1.0" encoding="utf-8"?>
<svg version="1.1" xmlns:xlink="http://www.w3.org/1999/xlink" width="60px" height="60px" xmlns="http://www.w3.org/2000/svg">
  <g transform="matrix(1 0 0 1 -1224 -518 )">
    <path d="M 1254 519  C 1270.24 519  1283 531.76  1283 548  C 1283 564.24  1270.24 577  1254 577  C 1237.76 577  1225 564.24  1225 548  C 1225 531.76  1237.76 519  1254 519  Z " fill-rule="nonzero" fill="#f2f2f2" stroke="none" />
    <path d="M 1254 519  C 1270.24 519  1283 531.76  1283 548  C 1283 564.24  1270.24 577  1254 577  C 1237.76 577  1225 564.24  1225 548  C 1225 531.76  1237.76 519  1254 519  Z " stroke-width="2" stroke="#ffffff" fill="none" />
  </g>
</svg>